# xmcd
#
# Track frame offsets: 
#        150
#        11680
#        21725
#        32958
#        44931
#        55466
#        64921
#        76660
#        86714
#        94649
#        106168
#        117665
#        129259
#        140679
#        151831
#        163315
#        173311
#        185315
#        196332
#        207527
#        219669
#        232496
#        243748
#        255923
#        269307
#
# Disc length: 3754 seconds
#
# Revision: 2
# Processed by: cddbd v1.5.2PL0 Copyright (c) Steve Scherf et al.
# Submitted via: ExactAudioCopyFreeDBPlugin 1.0
#
DISCID=740ea819
DTITLE=Various Artist - Rhythm 'n' Blues:  Early Doo-Wop
DYEAR=2005
DGENRE=Rhythm and Blues
TTITLE0=Billy Ward and The Dominoes - Can't Do Sixty More
TTITLE1=The Eagles (1950's doo-wop group) - Please, Please
TTITLE2=The Lollypoppers - A Bottle of Pop
TTITLE3=The Goldentones - The Meaning of Love
TTITLE4=The Deep River Boys - Shake Rattle and Roll
TTITLE5=Lee Andrews and The Hearts - The Bells of St. Mary's
TTITLE6=The "5" Royales - Baby, Take All of Me
TTITLE7=The Penguins - Hey Señorita
TTITLE8=The Mills Brothers - Tiger Rag
TTITLE9=The Rockers - My Confession
TTITLE10=The Cues - Burn That Candle
TTITLE11=The Swallows - It Ain't the Meat
TTITLE12=The Debs - Whaddaya Want
TTITLE13=The Larks - How Long Must I Wait
TTITLE14=The Goldentones - Run, Pretty Baby
TTITLE15=The Platters - Voo Vee Ah Bee
TTITLE16=The Treniers - Poon-Tang
TTITLE17=The Crickets - I'm Not the One You Love
TTITLE18=The Pelicans - Ain't Gonna Do It
TTITLE19=The Midnighters - Annie Had a Baby
TTITLE20=The Five Stars - Where Did Caldonia Go
TTITLE21=The Ravens - You Don't Have to Drop a Heart to Break It
TTITLE22=The Spaniels - Goodnight Sweetheart, Goodnight
TTITLE23=The Royals (aka The Midnighters) - Every Beat of My Heart
TTITLE24=The "5" Royales - Baby Don't Do It
EXTD=(c) 2005
EXTT0=
EXTT1=
EXTT2=
EXTT3=
EXTT4=
EXTT5=
EXTT6=
EXTT7=
EXTT8=
EXTT9=
EXTT10=
EXTT11=
EXTT12=
EXTT13=
EXTT14=
EXTT15=
EXTT16=
EXTT17=
EXTT18=
EXTT19=
EXTT20=
EXTT21=
EXTT22=
EXTT23=
EXTT24=
PLAYORDER=
